<?xml version="1.0" encoding="utf-8"?>
<svg xmlns="http://www.w3.org/2000/svg"
	xmlns:xlink="http://www.w3.org/1999/xlink"
	width="112px" height="27px" viewBox="0 0 112 27">
<filter filterUnits="objectBoundingBox" x="0.00" y="0.00" width="100.00" height="100.00" id="filter0">
<feFlood flood-color="rgb(118,161,204)" result="coFloodOut1"/>
<feComposite in="coFloodOut1" in2="SourceAlpha" operator="in" result="coOverlay1"/>
<feBlend in="coOverlay1" in2="SourceGraphic" mode="normal" result="colorOverlay1"/>
</filter>
<path fillRule="evenodd" d="M 1.62 23.82C 1.19 24.17 0.56 24.1 0.22 23.67-0.13 23.23-0.06 22.6 0.38 22.26 0.41 22.24 0.43 22.21 0.46 22.19 0.89 21.85 1.52 21.92 1.87 22.35 2.21 22.78 2.14 23.41 1.71 23.75 1.71 23.75 1.62 23.82 1.62 23.82M 4.83 21.34C 4.39 21.67 3.76 21.58 3.43 21.14 3.1 20.7 3.19 20.07 3.63 19.74 3.66 19.72 3.69 19.69 3.72 19.67 4.16 19.34 4.79 19.43 5.12 19.87 5.45 20.31 5.36 20.94 4.92 21.27 4.92 21.27 4.83 21.34 4.83 21.34M 8.1 18.96C 7.65 19.27 7.03 19.17 6.71 18.71 6.39 18.26 6.5 17.64 6.95 17.32 6.98 17.3 7.01 17.28 7.04 17.26 7.49 16.94 8.12 17.05 8.43 17.5 8.75 17.95 8.64 18.58 8.19 18.89 8.19 18.89 8.1 18.96 8.1 18.96M 11.44 16.69C 10.98 16.99 10.36 16.86 10.06 16.4 9.76 15.94 9.89 15.32 10.35 15.01 10.38 14.99 10.41 14.97 10.44 14.96 10.9 14.65 11.52 14.78 11.82 15.25 12.13 15.71 12 16.33 11.53 16.63 11.53 16.63 11.44 16.69 11.44 16.69M 14.86 14.54C 14.39 14.82 13.78 14.67 13.49 14.2 13.21 13.72 13.36 13.11 13.83 12.82 13.86 12.8 13.89 12.79 13.92 12.77 14.4 12.48 15.01 12.63 15.3 13.11 15.58 13.58 15.43 14.19 14.96 14.48 14.96 14.48 14.86 14.54 14.86 14.54M 18.36 12.51C 17.87 12.78 17.26 12.61 17 12.12 16.73 11.64 16.9 11.03 17.39 10.76 17.42 10.75 17.45 10.73 17.48 10.71 17.97 10.44 18.57 10.62 18.84 11.1 19.11 11.59 18.93 12.19 18.45 12.46 18.45 12.46 18.36 12.51 18.36 12.51M 21.92 10.63C 21.42 10.88 20.82 10.68 20.58 10.19 20.33 9.69 20.53 9.09 21.02 8.85 21.05 8.83 21.09 8.81 21.12 8.8 21.61 8.55 22.21 8.75 22.46 9.24 22.71 9.74 22.51 10.34 22.01 10.59 22.01 10.59 21.92 10.63 21.92 10.63M 25.55 8.91C 25.05 9.13 24.46 8.91 24.23 8.4 24 7.9 24.23 7.31 24.73 7.08 24.77 7.07 24.8 7.05 24.83 7.04 25.34 6.81 25.93 7.04 26.15 7.54 26.38 8.05 26.15 8.64 25.65 8.86 25.65 8.86 25.55 8.91 25.55 8.91M 29.25 7.35C 28.74 7.55 28.16 7.3 27.96 6.78 27.75 6.27 28.01 5.69 28.52 5.49 28.55 5.47 28.59 5.46 28.62 5.45 29.14 5.24 29.72 5.5 29.92 6.01 30.12 6.52 29.87 7.1 29.35 7.31 29.35 7.31 29.25 7.35 29.25 7.35M 33.02 5.96C 32.5 6.14 31.93 5.86 31.75 5.34 31.57 4.81 31.85 4.25 32.38 4.07 32.41 4.06 32.45 4.04 32.48 4.03 33 3.86 33.57 4.14 33.75 4.66 33.93 5.18 33.65 5.75 33.12 5.93 33.12 5.93 33.02 5.96 33.02 5.96M 36.85 4.77C 36.32 4.92 35.76 4.61 35.61 4.08 35.46 3.55 35.77 2.99 36.3 2.84 36.33 2.83 36.37 2.82 36.4 2.81 36.94 2.66 37.49 2.97 37.64 3.5 37.79 4.03 37.48 4.59 36.95 4.74 36.95 4.74 36.85 4.77 36.85 4.77M 40.72 3.77C 40.18 3.9 39.65 3.56 39.52 3.02 39.4 2.48 39.74 1.95 40.28 1.82 40.31 1.82 40.35 1.81 40.38 1.8 40.92 1.68 41.46 2.02 41.58 2.55 41.7 3.09 41.36 3.63 40.83 3.75 40.83 3.75 40.72 3.77 40.72 3.77M 44.65 2.99C 44.1 3.08 43.58 2.72 43.49 2.17 43.4 1.63 43.77 1.11 44.31 1.02 44.35 1.01 44.38 1.01 44.42 1 44.96 0.91 45.48 1.28 45.57 1.82 45.66 2.37 45.3 2.88 44.75 2.97 44.75 2.97 44.65 2.99 44.65 2.99M 48.6 2.43C 48.05 2.49 47.56 2.1 47.5 1.55 47.43 1 47.83 0.51 48.38 0.45 48.42 0.44 48.45 0.44 48.49 0.43 49.04 0.37 49.53 0.77 49.59 1.32 49.65 1.87 49.26 2.36 48.71 2.42 48.71 2.42 48.6 2.43 48.6 2.43M 52.58 2.1C 52.03 2.13 51.56 1.71 51.53 1.16 51.5 0.61 51.92 0.14 52.47 0.11 52.51 0.1 52.55 0.1 52.58 0.1 53.14 0.07 53.61 0.49 53.63 1.05 53.66 1.6 53.24 2.07 52.69 2.1 52.69 2.1 52.58 2.1 52.58 2.1M 56.57 2.01C 56.02 2 55.57 1.55 55.58 1 55.58 0.45 56.03 0 56.58 0.01 56.62 0.01 56.66 0.01 56.69 0.01 57.24 0.01 57.69 0.46 57.68 1.02 57.68 1.57 57.23 2.01 56.68 2.01 56.68 2.01 56.57 2.01 56.57 2.01M 60.56 2.15C 60.01 2.11 59.59 1.64 59.63 1.09 59.66 0.54 60.14 0.12 60.69 0.16 60.73 0.16 60.76 0.16 60.8 0.16 61.35 0.2 61.77 0.68 61.73 1.23 61.69 1.78 61.22 2.19 60.66 2.16 60.66 2.16 60.56 2.15 60.56 2.15M 64.53 2.53C 63.98 2.46 63.59 1.96 63.66 1.41 63.73 0.87 64.23 0.48 64.78 0.55 64.81 0.55 64.85 0.56 64.89 0.56 65.44 0.63 65.82 1.13 65.75 1.68 65.68 2.23 65.18 2.62 64.63 2.55 64.63 2.55 64.53 2.53 64.53 2.53M 68.47 3.15C 67.93 3.05 67.57 2.53 67.67 1.98 67.77 1.44 68.3 1.08 68.84 1.18 68.87 1.19 68.91 1.2 68.95 1.2 69.49 1.31 69.85 1.83 69.74 2.37 69.64 2.91 69.12 3.27 68.58 3.17 68.58 3.17 68.47 3.15 68.47 3.15M 72.37 4C 71.84 3.87 71.51 3.32 71.64 2.79 71.78 2.25 72.32 1.92 72.85 2.06 72.89 2.07 72.93 2.08 72.96 2.08 73.5 2.22 73.82 2.76 73.69 3.3 73.55 3.83 73.01 4.16 72.48 4.02 72.48 4.02 72.37 4 72.37 4M 76.22 5.07C 75.69 4.91 75.4 4.35 75.56 3.82 75.73 3.29 76.29 3 76.81 3.16 76.85 3.17 76.88 3.18 76.92 3.2 77.45 3.36 77.74 3.92 77.58 4.45 77.41 4.97 76.85 5.27 76.32 5.1 76.32 5.1 76.22 5.07 76.22 5.07M 80.01 6.36C 79.49 6.17 79.22 5.59 79.42 5.08 79.61 4.56 80.18 4.3 80.7 4.49 80.74 4.5 80.77 4.51 80.81 4.53 81.32 4.72 81.59 5.3 81.39 5.81 81.2 6.33 80.62 6.59 80.1 6.4 80.1 6.4 80.01 6.36 80.01 6.36M 83.72 7.86C 83.21 7.64 82.98 7.05 83.2 6.54 83.42 6.04 84.01 5.8 84.51 6.03 84.55 6.04 84.58 6.05 84.61 6.07 85.12 6.29 85.35 6.88 85.13 7.39 84.91 7.89 84.32 8.12 83.81 7.9 83.81 7.9 83.72 7.86 83.72 7.86M 87.35 9.55C 86.85 9.31 86.65 8.71 86.9 8.21 87.14 7.72 87.74 7.52 88.24 7.76 88.27 7.78 88.3 7.8 88.34 7.81 88.83 8.06 89.03 8.66 88.78 9.15 88.54 9.65 87.94 9.85 87.44 9.6 87.44 9.6 87.35 9.55 87.35 9.55M 90.89 11.43C 90.41 11.16 90.24 10.55 90.51 10.07 90.78 9.59 91.39 9.42 91.87 9.69 91.9 9.71 91.93 9.73 91.96 9.74 92.45 10.02 92.61 10.63 92.34 11.11 92.07 11.59 91.46 11.76 90.98 11.49 90.98 11.49 90.89 11.43 90.89 11.43M 94.33 13.49C 93.86 13.19 93.72 12.57 94.02 12.11 94.31 11.64 94.93 11.5 95.4 11.8 95.43 11.82 95.46 11.83 95.49 11.85 95.96 12.15 96.1 12.77 95.8 13.23 95.51 13.7 94.89 13.84 94.42 13.54 94.42 13.54 94.33 13.49 94.33 13.49M 97.67 15.71C 97.22 15.39 97.11 14.77 97.43 14.32 97.74 13.86 98.37 13.75 98.82 14.07 98.85 14.09 98.88 14.11 98.91 14.13 99.36 14.45 99.47 15.07 99.16 15.53 98.84 15.98 98.21 16.09 97.76 15.77 97.76 15.77 97.67 15.71 97.67 15.71M 100.91 18.09C 100.47 17.75 100.39 17.12 100.73 16.69 101.07 16.25 101.69 16.17 102.13 16.51 102.16 16.53 102.19 16.55 102.22 16.57 102.65 16.91 102.73 17.54 102.4 17.98 102.06 18.41 101.43 18.49 100.99 18.15 100.99 18.15 100.91 18.09 100.91 18.09M 104.02 20.62C 103.6 20.26 103.55 19.63 103.91 19.21 104.27 18.79 104.9 18.74 105.32 19.1 105.35 19.12 105.37 19.15 105.4 19.17 105.82 19.53 105.87 20.16 105.51 20.58 105.15 21 104.52 21.05 104.1 20.69 104.1 20.69 104.02 20.62 104.02 20.62M 106.99 23.3C 106.59 22.92 106.58 22.28 106.96 21.88 107.34 21.48 107.97 21.47 108.37 21.85 108.4 21.87 108.43 21.9 108.45 21.92 108.85 22.31 108.87 22.94 108.49 23.34 108.11 23.74 107.47 23.75 107.07 23.37 107.07 23.37 106.99 23.3 106.99 23.3M 109.79 26.12C 109.41 25.71 109.44 25.08 109.85 24.71 110.26 24.34 110.89 24.37 111.26 24.77 111.29 24.8 111.31 24.83 111.34 24.85 111.71 25.26 111.68 25.9 111.27 26.27 110.86 26.64 110.23 26.61 109.85 26.2 109.85 26.2 109.79 26.12 109.79 26.12" fill="rgb(153,201,63)" filter="url(#filter0)"/></svg>