<?xml version="1.0" encoding="utf-8"?>
<!-- Generator: Adobe Illustrator 21.1.0, SVG Export Plug-In . SVG Version: 6.00 Build 0)  -->
<svg version="1.1" id="Слой_2" xmlns="http://www.w3.org/2000/svg" xmlns:xlink="http://www.w3.org/1999/xlink" x="0px" y="0px"
	 viewBox="0 0 62 44" style="enable-background:new 0 0 62 44;" xml:space="preserve">
<style type="text/css">
	.st0{fill:none;stroke:#29ABE2;stroke-miterlimit:10;}
</style>
<line class="st0" x1="0.3" y1="12.6" x2="31" y2="1.3"/>
<line class="st0" x1="31" y1="1.3" x2="61.1" y2="11.5"/>
<line class="st0" x1="31" y1="23.7" x2="61.2" y2="12.1"/>
<line class="st0" x1="0.6" y1="12.9" x2="31" y2="23.7"/>
<line class="st0" x1="47.6" y1="17.9" x2="47.6" y2="30.9"/>
<path class="st0" d="M47.4,30.8c-0.6,0.6-1.5,1.4-2.6,2.1c-0.5,0.3-1.9,1.2-3.5,1.9c-1.1,0.4-2.1,0.7-6.3,0.9
	c-4.2,0.3-6.3,0.4-8.2,0.1c-2.1-0.3-3.7-0.8-4.6-1.1c-1.8-0.6-3.1-0.9-4.5-1.9c-1-0.6-2.4-1.6-3.8-3.3"/>
<path class="st0" d="M13.8,18c0.1,1.2-0.1,1.9-0.4,2.2c-0.2,0.3-0.5,0.5-0.8,1c-0.1,0.3-0.3,0.6-0.3,1c0,0.1-0.1,0.8,0.4,1.4
	c0.3,0.4,0.5,0.3,0.8,0.6c0.2,0.3,0.3,0.6,0.4,1.3c0,0.3,0.1,0.7,0.1,1.4c0,0.4-0.1,0.9-0.4,1.5c-0.3,0.6-0.4,0.5-0.6,1
	c-0.1,0.3-0.2,0.7-0.1,1.6c0.1,0.9,0.2,1.1,0.3,1.9c0.2,1.1,0.1,1.3,0.3,2.6c0.1,0.7,0.2,1,0.3,1.8c0,0.2,0.1,0.6,0.1,1.3
	c0.1,1.4,0.1,1.6,0.1,1.8c-0.1,0.3-0.2,0.9-0.5,1.3c-0.3,0.3-0.7,0.3-1.9,0.4C9.7,42,9.3,42.1,8.2,42c-0.7-0.1-1.1-0.1-1.5-0.5
	c-0.4-0.3-0.6-0.7-0.7-0.9c-0.1-0.2-0.4-0.8-0.3-2c0.1-1,0.3-1,0.4-2.3c0.1-0.9,0.2-1.7,0.2-2c0-1,0-1.5,0.2-2.3
	c0.1-0.3,0.1-0.6,0.3-0.9c0.4-0.7,0.7-0.8,0.8-1.2c0.1-0.4-0.1-0.8-0.5-1.4c-0.4-0.7-0.6-0.7-1-1.4C6,26.8,5.8,26.5,5.7,26
	c0-0.2,0-0.7,0.3-1.6c0.3-0.8,0.5-1,0.8-1.7c0.1-0.3,0.3-1,0.8-2.3c0.6-1.8,0.7-2.3,0.8-2.6c0.2-0.6,0.3-1.2,0.3-1.5"/>
<line class="st0" x1="14.4" y1="18.3" x2="14.3" y2="30.1"/>
</svg>
