<?xml version="1.0" encoding="utf-8"?>
<!-- Generator: Adobe Illustrator 21.1.0, SVG Export Plug-In . SVG Version: 6.00 Build 0)  -->
<svg version="1.1" id="Слой_2" xmlns="http://www.w3.org/2000/svg" xmlns:xlink="http://www.w3.org/1999/xlink" x="0px" y="0px"
	 viewBox="0 0 47 47" style="enable-background:new 0 0 47 47;" xml:space="preserve">
<style type="text/css">
	.st0{fill:none;stroke:#29ABE2;stroke-miterlimit:10;}
	.st1{fill:#FFFFFF;stroke:#FFFFFF;stroke-miterlimit:10;}
</style>
<ellipse class="st0" cx="23.4" cy="23" rx="22.5" ry="22.2"/>
<rect x="21.4" y="0.5" class="st1" width="3.6" height="17.6"/>
<line class="st0" x1="20.8" y1="18.8" x2="20.8" y2="0.5"/>
<path class="st0" d="M6.9,38.1c0.8-0.3,1.8-0.8,2.9-1.6c1.1-0.8,1.8-1.4,2.9-2.5c1-1,2.2-2.2,3.4-3.9c0.9-1.3,1.4-2.3,1.9-3.3
	c1.7-3.1,2.2-4.7,2.3-5.4c0.2-0.7,0.3-1.5,0.3-1.5c0.1-0.4,0.1-0.8,0.2-1.1"/>
<path class="st0" d="M39.6,38.4c-1.5-1-2.8-1.9-3.7-2.5c-1.6-1.1-2.4-1.7-3.2-2.5c-1.2-1.1-1.9-2.2-2.5-2.9
	c-0.5-0.7-1.5-2.2-2.4-4.2c-0.2-0.4-0.5-1.2-0.9-2.3c-0.2-0.6-0.4-1.4-0.6-2.3c-0.1-0.5-0.2-1.3-0.3-2.4c-0.1-1.7,0-8.7,0.1-18.2"/>
<path class="st0" d="M11.8,41.6c0.6-0.5,1.5-1.3,2.5-2.2c1.7-1.5,2.6-2.3,3.3-3.2c1.2-1.3,1.9-2.4,2.8-4c1.3-2.1,1.8-3.3,1.9-3.6
	c0.4-1,0.6-1.8,0.8-2.4"/>
<path class="st0" d="M34.4,42.3c-1.4-1.2-2.5-2.2-3.3-3c-1.6-1.5-2.5-2.3-3.5-3.6c-0.7-0.8-1.4-1.7-2.1-3c-0.8-1.5-1.2-2.8-1.6-4.2
	c-0.4-1.3-0.6-2.5-0.8-3.3"/>
<path class="st1" d="M5.7,40.2c0.1-1.4,3-1.8,3.7-1.9c1.5-0.2,1.8,0.1,1.8,0.2c0.4,0.5,0.1,1.3-0.1,1.9c-0.3,0.9-0.7,2.1-1.7,2.5
	c-1.3,0.5-2.7-0.7-3.3-1.7C5.8,40.9,5.7,40.6,5.7,40.2z"/>
<path class="st1" d="M39.1,42.8c-0.7,0.2-1.3,0.1-1.7,0.1c-0.5-0.1-2.3-0.4-2.8-1.8c-0.1-0.1-0.3-0.9,0.1-1.6c0.4-0.7,1.2-0.9,1.6-1
	c0.3-0.1,0.9-0.2,1.6,0c1,0.3,1.6,1,1.8,1.2c0.3,0.4,0.9,1.2,0.6,2.1C40,42.4,39.3,42.7,39.1,42.8z"/>
</svg>
