<?xml version="1.0" encoding="utf-8"?>
<!-- Generator: Adobe Illustrator 21.1.0, SVG Export Plug-In . SVG Version: 6.00 Build 0)  -->
<svg version="1.1" id="Слой_2" xmlns="http://www.w3.org/2000/svg" xmlns:xlink="http://www.w3.org/1999/xlink" x="0px" y="0px"
	 viewBox="0 0 45 55" style="enable-background:new 0 0 45 55;" xml:space="preserve">
<style type="text/css">
	.st0{fill:none;stroke:#29ABE2;stroke-miterlimit:10;}
</style>
<line class="st0" x1="19" y1="7.2" x2="19" y2="1.3"/>
<line class="st0" x1="18.6" y1="1.3" x2="26.4" y2="1.3"/>
<path class="st0" d="M26.4,0.9v6.6c1.5,0.2,2.8,0.6,3.7,0.9c0.9,0.3,1.7,0.6,2.7,1.2c1.3,0.8,2.2,1.7,2.7,2.5"/>
<path class="st0" d="M35.5,12.1L31,18.7c-1-1.1-2.1-1.8-2.8-2.3c-0.7-0.4-1.5-0.9-2.8-1.2c-1.4-0.3-2.5-0.2-3.6-0.1
	c-1.2,0.1-1.8,0.2-2.5,0.7c-0.2,0.2-1,0.8-1.2,1.9c-0.2,1,0.2,1.7,0.3,2c0.1,0.2,0.5,0.9,2.5,2c1.4,0.8,2.7,1.2,3.6,1.5
	c1.7,0.5,1.7,0.3,2.7,0.8c0.8,0.3,1.7,0.9,3.5,2.1c2.2,1.5,2.6,1.9,2.9,2.2c0.2,0.2,0.9,1,1.5,2.2c0.3,0.6,0.8,1.7,1,3.1
	c0.1,1.1,0,1.8-0.2,3.2c-0.2,1.5-0.4,2.4-0.9,3.4c-0.5,1-1,1.5-2,2.7c-0.7,0.7-1.3,1.5-2.4,2.3c-1,0.7-1.8,1.1-2.1,1.2
	c-0.8,0.3-1.5,0.6-2.1,0.7"/>
<line class="st0" x1="26.5" y1="47.1" x2="26.4" y2="52.8"/>
<line class="st0" x1="26.4" y1="52.8" x2="19" y2="52.9"/>
<path class="st0" d="M19,53.2v-6.1c-1.4,0-2.5-0.3-3.3-0.5c-1.2-0.4-2-0.9-3.2-1.6c-0.7-0.4-1.4-0.8-2.2-1.4
	c-0.7-0.6-1.8-1.5-2.8-2.9"/>
<path class="st0" d="M7.5,40.7l4.9-5.9c1.2,0.8,2.1,1.3,2.9,1.8c2.3,1.3,3.1,1.6,3.5,1.8c0.9,0.3,1.7,0.6,2.9,0.6c0.6,0,1.8,0,3-0.8
	c0.5-0.3,1.4-0.8,1.8-1.9c0.1-0.2,0.5-1.4-0.1-2.5c-0.3-0.7-0.9-1-1.8-1.4c-1.8-0.9-3.3-1.5-4-1.7c-0.4-0.1-2.4-0.9-4.6-2
	c-1.5-0.7-2.5-1.3-3.7-2.3c-0.8-0.7-1.7-1.4-2.5-2.7c-1.1-1.8-1.2-3.5-1.3-4.5c-0.1-1-0.2-2.6,0.5-4.5c0.6-1.6,1.5-2.5,2.2-3.3
	c0.8-0.8,2.1-2,4.1-3"/>
<line class="st0" x1="15.3" y1="8.4" x2="19" y2="7.2"/>
</svg>
