<?xml version="1.0" encoding="utf-8"?>
<!-- Generator: Adobe Illustrator 21.1.0, SVG Export Plug-In . SVG Version: 6.00 Build 0)  -->
<svg version="1.1" xmlns="http://www.w3.org/2000/svg" xmlns:xlink="http://www.w3.org/1999/xlink" x="0px" y="0px"
	 viewBox="0 0 47 48" style="enable-background:new 0 0 47 48;" xml:space="preserve">
<style type="text/css">
	.st0{display:none;}
	.st1{fill:none;stroke:#29ABE2;stroke-miterlimit:10;}
	.st2{fill:#FFFFFF;stroke:#FFFFFF;stroke-miterlimit:10;}
</style>
<g id="Слой_2">
	<ellipse class="st1" cx="23.2" cy="24" rx="22.7" ry="22.8"/>
	<ellipse class="st1" cx="23.3" cy="23.9" rx="6.4" ry="6.1"/>
	<line class="st1" x1="11.1" y1="19.2" x2="3.8" y2="12.2"/>
	<line class="st1" x1="11.1" y1="19.2" x2="1.5" y2="19"/>
	<line class="st1" x1="11.4" y1="5" x2="17.9" y2="11.2"/>
	<line class="st1" x1="18.4" y1="1.7" x2="18.2" y2="11.5"/>
	<line class="st1" x1="27.8" y1="11.2" x2="27.8" y2="1.9"/>
	<line class="st1" x1="27.8" y1="11.2" x2="34.8" y2="4.7"/>
	<line class="st1" x1="35.4" y1="19.5" x2="42" y2="12.4"/>
	<line class="st1" x1="35.5" y1="19.8" x2="45.4" y2="19.6"/>
	<line class="st1" x1="35.5" y1="29.4" x2="45.4" y2="29.5"/>
	<line class="st1" x1="35.3" y1="29.7" x2="42.4" y2="35.2"/>
	<line class="st1" x1="28.3" y1="35.9" x2="34.6" y2="43.4"/>
	<line class="st1" x1="28.3" y1="35.9" x2="28.2" y2="46"/>
	<line class="st1" x1="18.3" y1="36.4" x2="18.3" y2="46.3"/>
	<line class="st1" x1="18.1" y1="37" x2="11.4" y2="42.9"/>
	<line class="st1" x1="10.8" y1="29.5" x2="4.2" y2="36"/>
	<line class="st1" x1="10.5" y1="29" x2="1" y2="29"/>
	<path class="st2" d="M4.1,14.1c0,0-0.6-1.4-2.6-2.7C1.4,11.3,1.1,11.1,1,11c0,0,0,0,0,0c-0.1,0-0.2,0.9-0.2,1.6
		c-0.1,0.9,0,0.9,0,1.6c-0.1,1.2-0.4,1.4-0.3,2.3c0.1,0.4,0.1,1,0.6,1.3c0.5,0.3,1.1,0.2,1.6,0c0.6-0.2,1.2-0.3,1.6-0.9
		C4.9,15.8,4.3,14.5,4.1,14.1z"/>
	<path class="st2" d="M13.7,0.9c-1.2,0.4-1.7,0.9-1.9,1.1c-0.2,0.3-0.4,0.5-0.4,0.9c0,1.1,1.6,1.8,1.9,1.9c0.6,0.3,1.1,0.5,1.8,0.3
		c0.2-0.1,0.3-0.1,1.3-1.4c0.6-0.7,0.7-0.8,0.7-1c0.2-0.6,0.1-1.6-0.5-2C16,0.2,15,0.5,13.7,0.9z"/>
	<path class="st2" d="M28.9,4.1"/>
	<path class="st2" d="M28.8,5.1C28.7,4.6,28.6,4,28.8,3c0.1-0.8,0.3-2.3,1.2-2.6c0.3-0.1,0.6-0.1,1.7,0.4c1.6,0.7,2.2,0.7,2.5,1.2
		c0.2,0.3,0.2,0.6,0.2,0.7c0,1.3-1.5,2.1-1.8,2.3c-0.7,0.4-0.8,0.1-1.8,0.5C30,5.8,29.7,6.2,29.4,6C29.1,5.9,28.9,5.5,28.8,5.1z"/>
	<path class="st2" d="M41.7,14.2c0.2-0.2,0.4-0.5,0.8-0.8c0.7-0.7,0.8-0.9,1.1-1c0.3-0.1,0.8,0,1.1,0.2c0.5,0.4,0,1,0.3,2.2
		c0.2,0.9,0.6,1.1,0.7,2.2c0.1,0.7,0.1,0.8,0.1,1c-0.3,0.7-1.6,1.1-2.5,0.7c-0.6-0.2-0.8-0.7-1.1-1.2C41.6,16.2,41.6,15,41.7,14.2z"
		/>
	<path class="st2" d="M45.1,34.5c-0.2,0.1-0.7,0.2-1.2,0.1c-0.1,0-1.4-0.3-1.7-1.5c-0.2-0.7,0.1-1.3,0.2-1.4c0-0.1,0.5-0.9,1.4-1.1
		c1-0.2,2.1,0.4,2.4,1.2c0.1,0.5,0,0.9-0.2,1.4C45.7,33.8,45.3,34.3,45.1,34.5z"/>
	<path class="st2" d="M29.4,43.9c0.4-1,1.5-1.2,1.5-1.3c0.8-0.2,1.4,0.1,1.9,0.4c0.3,0.2,1.8,0.9,1.7,2c-0.1,0.9-1.1,1.4-1.2,1.4
		c-0.7,0.3-1.4,0.3-2.3,0.2c-0.7,0-0.8,0-1-0.1c-0.7-0.4-0.7-1.5-0.7-1.7C29.2,44.7,29.3,44.3,29.4,43.9z"/>
	<path class="st2" d="M11.2,45.2c0.4-0.6,0.8-1.1,1.1-1.5c0.6-0.8,0.8-1,1.1-1.1c0.5-0.2,0.9-0.1,1.3,0.1c0.4,0.1,1.4,0.4,2.1,1.4
		c0.2,0.3,0.5,0.8,0.5,1.4c0,0.7-0.4,1.3-1,1.6c-0.9,0.6-2.1,0-3-0.4C12.3,46.2,11.6,45.6,11.2,45.2z"/>
	<path class="st2" d="M4.5,33.2c-0.1,1.2-1,2.3-2.1,2.6c-0.3,0.1-1.1,0.4-1.5,0c-0.5-0.4-0.1-1.1-0.2-3.1c-0.1-1.1-0.3-1.5,0-2
		c0.3-0.5,1-0.8,1.6-0.8c0.8,0,1.3,0.6,1.6,0.9C4.7,31.8,4.6,33.1,4.5,33.2z"/>
</g>
</svg>
