<?xml version="1.0" encoding="utf-8"?>
<!-- Generator: Adobe Illustrator 21.1.0, SVG Export Plug-In . SVG Version: 6.00 Build 0)  -->
<svg version="1.1" id="Слой_2" xmlns="http://www.w3.org/2000/svg" xmlns:xlink="http://www.w3.org/1999/xlink" x="0px" y="0px"
	 viewBox="0 0 50 51" style="enable-background:new 0 0 50 51;" xml:space="preserve">
<style type="text/css">
	.st0{fill:none;stroke:#29ABE2;stroke-miterlimit:10;}
</style>
<path class="st0" d="M33.7,31.2c0.9-0.9,2.1-2,3.5-3.2c1.7-1.5,2.1-1.8,3-2.7c1.1-1.1,1.7-2,2.9-3.9c1.3-2,2-3,2.8-4.7
	c0.7-1.5,1-2.6,1.4-4.1c0.4-1.5,0.8-2.9,1-4.8c0.2-1.6,0.1-2.6,0-4c-0.1-2-0.4-2.3-0.6-2.5c-0.5-0.5-1.2-0.4-3.9-0.1
	c-2.6,0.3-3.8,0.5-4.1,0.6c-2.4,0.5-4.2,1.3-5.3,1.8c-1.9,0.8-3.4,1.7-4.1,2.1c-3.1,1.9-5.1,3.9-7.9,6.6c-0.9,0.9-2.2,2.3-3.7,4"/>
<line class="st0" x1="8.2" y1="16.4" x2="18.8" y2="16.2"/>
<line class="st0" x1="33.7" y1="42.3" x2="33.7" y2="31.2"/>
<line class="st0" x1="20.9" y1="49.6" x2="33.7" y2="42.3"/>
<line class="st0" x1="0.6" y1="29.5" x2="8.2" y2="16.7"/>
<line class="st0" x1="0.6" y1="29.5" x2="4.7" y2="33.6"/>
<line class="st0" x1="4.7" y1="33.6" x2="11.6" y2="30.8"/>
<line class="st0" x1="11.6" y1="30.8" x2="18.8" y2="37.8"/>
<line class="st0" x1="18.8" y1="37.8" x2="17.1" y2="45.9"/>
<line class="st0" x1="17.1" y1="45.9" x2="20.9" y2="49.6"/>
<circle class="st0" cx="38.6" cy="11.6" r="1.8"/>
</svg>
